<svg aria-hidden="true" style="position: absolute; width: 0; height: 0; overflow: hidden;" version="1.1" xmlns="http://www.w3.org/2000/svg" xmlns:xlink="http://www.w3.org/1999/xlink">
<defs>
<symbol id="icon-close" viewBox="0 0 32 32">
<path  stroke-linejoin="miter" stroke-linecap="butt" stroke-miterlimit="4" stroke-width="2" d="M2.519 2l26.963 28"></path>
<path  stroke-linejoin="miter" stroke-linecap="butt" stroke-miterlimit="4" stroke-width="2" d="M2 29.481l28-26.963"></path>
</symbol>
<symbol id="icon-header-arrow" viewBox="0 0 22 32">
<path fill="none" stroke="#d41443" style="stroke: var(--color1)" stroke-linejoin="round" stroke-linecap="round" stroke-miterlimit="4" stroke-width="6.4" d="M5.575 3.2l12.88 12.8-12.88 12.8"></path>
</symbol>
<symbol id="icon-read-more-btn" viewBox="0 0 75 32">
<path fill="#d41443" style="fill: var(--color1, #d41443)" d="M4.47 19.636v-7.127h2.617c0.57 0 1.039 0.098 1.405 0.295 0.373 0.19 0.652 0.451 0.835 0.784 0.183 0.326 0.275 0.689 0.275 1.089 0 0.434-0.115 0.832-0.346 1.191-0.224 0.36-0.577 0.621-1.059 0.784l1.476 2.983h-1.497l-1.324-2.81h-1.079v2.81h-1.303zM5.773 15.869h1.232c0.434 0 0.753-0.105 0.957-0.316s0.305-0.489 0.305-0.835c0-0.339-0.102-0.611-0.305-0.815-0.197-0.204-0.519-0.305-0.967-0.305h-1.222v2.271zM12.929 19.759c-0.509 0-0.96-0.109-1.354-0.326s-0.703-0.523-0.927-0.916-0.336-0.849-0.336-1.364c0-0.523 0.109-0.988 0.326-1.395 0.224-0.407 0.529-0.723 0.916-0.947 0.394-0.231 0.855-0.346 1.385-0.346 0.495 0 0.933 0.109 1.313 0.326s0.675 0.516 0.886 0.896c0.217 0.373 0.326 0.791 0.326 1.252 0 0.075-0.003 0.153-0.010 0.234 0 0.081-0.003 0.166-0.010 0.255h-3.839c0.027 0.394 0.163 0.703 0.407 0.927 0.251 0.224 0.553 0.336 0.906 0.336 0.265 0 0.485-0.058 0.662-0.173 0.183-0.122 0.319-0.278 0.407-0.468h1.324c-0.095 0.319-0.255 0.611-0.479 0.876-0.217 0.258-0.489 0.462-0.815 0.611-0.319 0.149-0.682 0.224-1.089 0.224zM12.939 15.523c-0.319 0-0.601 0.092-0.845 0.275-0.244 0.177-0.4 0.448-0.468 0.815h2.515c-0.020-0.333-0.143-0.597-0.367-0.794s-0.502-0.295-0.835-0.295zM18.301 19.759c-0.434 0-0.791-0.068-1.069-0.204-0.278-0.143-0.485-0.329-0.621-0.56s-0.204-0.485-0.204-0.764c0-0.468 0.183-0.849 0.55-1.14s0.916-0.438 1.649-0.438h1.283v-0.122c0-0.346-0.098-0.601-0.295-0.764s-0.441-0.244-0.733-0.244c-0.265 0-0.496 0.065-0.692 0.193-0.197 0.122-0.319 0.305-0.367 0.55h-1.273c0.034-0.367 0.156-0.686 0.367-0.957 0.217-0.271 0.495-0.479 0.835-0.621 0.339-0.149 0.72-0.224 1.14-0.224 0.72 0 1.286 0.18 1.7 0.54s0.621 0.869 0.621 1.527v3.105h-1.11l-0.122-0.815c-0.149 0.271-0.36 0.495-0.631 0.672-0.265 0.177-0.608 0.265-1.028 0.265zM18.597 18.74c0.373 0 0.662-0.122 0.865-0.367 0.21-0.244 0.343-0.546 0.397-0.906h-1.11c-0.346 0-0.594 0.064-0.743 0.193-0.149 0.122-0.224 0.275-0.224 0.458 0 0.197 0.075 0.35 0.224 0.458s0.346 0.163 0.591 0.163zM24.758 19.759c-0.475 0-0.899-0.115-1.273-0.346s-0.669-0.546-0.886-0.947c-0.217-0.401-0.326-0.855-0.326-1.364s0.109-0.96 0.326-1.354c0.217-0.4 0.512-0.713 0.886-0.937 0.373-0.231 0.798-0.346 1.273-0.346 0.38 0 0.713 0.071 0.998 0.214s0.516 0.343 0.692 0.601v-2.973h1.303v7.331h-1.161l-0.143-0.723c-0.163 0.224-0.38 0.421-0.652 0.591-0.265 0.17-0.611 0.255-1.039 0.255zM25.033 18.618c0.421 0 0.764-0.139 1.028-0.417 0.272-0.285 0.407-0.648 0.407-1.089s-0.136-0.801-0.407-1.079c-0.265-0.285-0.608-0.428-1.028-0.428-0.414 0-0.757 0.139-1.028 0.417s-0.407 0.638-0.407 1.079 0.136 0.804 0.407 1.089c0.272 0.285 0.614 0.428 1.028 0.428zM31.505 19.636v-5.050h1.151l0.112 0.682c0.163-0.244 0.377-0.438 0.641-0.58 0.272-0.149 0.584-0.224 0.937-0.224 0.781 0 1.334 0.302 1.66 0.906 0.183-0.278 0.428-0.499 0.733-0.662 0.312-0.163 0.652-0.244 1.018-0.244 0.658 0 1.164 0.197 1.517 0.591s0.529 0.971 0.529 1.731v2.851h-1.303v-2.729c0-0.434-0.085-0.767-0.255-0.998-0.163-0.231-0.417-0.346-0.764-0.346-0.353 0-0.638 0.129-0.855 0.387-0.21 0.258-0.316 0.618-0.316 1.079v2.607h-1.303v-2.729c0-0.434-0.085-0.767-0.255-0.998s-0.431-0.346-0.784-0.346c-0.346 0-0.628 0.129-0.845 0.387-0.21 0.258-0.316 0.618-0.316 1.079v2.607h-1.303zM43.464 19.759c-0.489 0-0.93-0.112-1.324-0.336-0.387-0.224-0.696-0.533-0.927-0.927-0.224-0.401-0.336-0.862-0.336-1.385s0.115-0.981 0.346-1.375c0.231-0.4 0.54-0.713 0.927-0.937 0.394-0.224 0.835-0.336 1.324-0.336 0.482 0 0.916 0.112 1.303 0.336 0.394 0.224 0.703 0.536 0.927 0.937 0.231 0.394 0.346 0.852 0.346 1.375s-0.115 0.984-0.346 1.385c-0.224 0.394-0.533 0.703-0.927 0.927s-0.831 0.336-1.313 0.336zM43.464 18.628c0.339 0 0.635-0.126 0.886-0.377 0.251-0.258 0.377-0.638 0.377-1.14s-0.126-0.879-0.377-1.13c-0.251-0.258-0.543-0.387-0.876-0.387-0.346 0-0.645 0.129-0.896 0.387-0.244 0.251-0.367 0.628-0.367 1.13s0.122 0.882 0.367 1.14c0.251 0.251 0.546 0.377 0.886 0.377zM47.215 19.636v-5.050h1.161l0.122 0.947c0.183-0.326 0.431-0.584 0.743-0.774 0.319-0.197 0.692-0.295 1.12-0.295v1.375h-0.367c-0.285 0-0.54 0.044-0.764 0.132s-0.4 0.241-0.529 0.458c-0.122 0.217-0.183 0.519-0.183 0.906v2.301h-1.303zM53.616 19.759c-0.509 0-0.961-0.109-1.354-0.326s-0.703-0.523-0.927-0.916-0.336-0.849-0.336-1.364c0-0.523 0.109-0.988 0.326-1.395 0.224-0.407 0.529-0.723 0.916-0.947 0.394-0.231 0.855-0.346 1.385-0.346 0.495 0 0.933 0.109 1.313 0.326s0.675 0.516 0.886 0.896c0.217 0.373 0.326 0.791 0.326 1.252 0 0.075-0.003 0.153-0.010 0.234 0 0.081-0.003 0.166-0.010 0.255h-3.839c0.027 0.394 0.163 0.703 0.407 0.927 0.251 0.224 0.553 0.336 0.906 0.336 0.265 0 0.485-0.058 0.662-0.173 0.183-0.122 0.319-0.278 0.407-0.468h1.324c-0.095 0.319-0.255 0.611-0.479 0.876-0.217 0.258-0.489 0.462-0.815 0.611-0.319 0.149-0.682 0.224-1.089 0.224zM53.627 15.523c-0.319 0-0.601 0.092-0.845 0.275-0.244 0.177-0.401 0.448-0.468 0.815h2.515c-0.020-0.333-0.143-0.597-0.367-0.794s-0.502-0.295-0.835-0.295z"></path>
<path fill="none" stroke="#d41443" style="stroke: var(--color1, #d41443)" stroke-linejoin="round" stroke-linecap="round" stroke-miterlimit="4" stroke-width="1.4545" d="M70.266 13.818l3.22 2.909-3.22 2.909"></path>
</symbol>
<symbol id="icon-button-right-arrow2" viewBox="0 0 32 32">
<path d="M19.769 2.862c-0.371-0.39-0.891-0.634-1.468-0.642h-0.001c-0.008-0-0.017-0-0.027-0-0.569 0-1.085 0.231-1.458 0.604v0c-0.374 0.373-0.605 0.889-0.605 1.46 0 0.588 0.246 1.118 0.64 1.494l0.001 0.001 4.982 4.974h-16.568c-0.76 0-1.424 0.411-1.782 1.022l-0.005 0.010c-0.369 0.638-0.369 1.425 0 2.063s1.050 1.032 1.787 1.032h16.522l-4.935 4.944c-0.35 0.369-0.565 0.869-0.565 1.419 0 1.14 0.924 2.063 2.063 2.063 0.551 0 1.051-0.216 1.421-0.567l-0.001 0.001 8.427-8.427c0.373-0.371 0.604-0.885 0.604-1.452 0-0.002 0-0.005 0-0.007v0c0.001-0.017 0.001-0.034 0-0.051 0.001-0.008 0.001-0.017 0.001-0.026s-0-0.018-0.001-0.027l0 0.001c-0-0.57-0.231-1.085-0.604-1.459l0 0z"></path>
</symbol>
<symbol id="icon-button-short-arrow" viewBox="0 0 26 32" >
<path fill="red" stroke="#fff" style="stroke: var(--color1, #fff)" stroke-linejoin="round" stroke-linecap="round" stroke-miterlimit="4" stroke-width="6.4" d="M5.172 3.2l14.169 12.8-14.169 12.8"></path>
</symbol>
<symbol id="icon-button-short-arrow2" viewBox="0 0 26 32">
<path fill="none" stroke="#d31342" style="stroke: var(--color1, #d31342)" stroke-linejoin="round" stroke-linecap="round" stroke-miterlimit="4" stroke-width="6.4" d="M5.172 3.2l14.169 12.8-14.169 12.8"></path>
</symbol>
<symbol id="icon-customer-reviews-point-home" viewBox="0 0 35 32">
<path fill="#d31342" style="fill: var(--color2, #d31342)" d="M34.253 15.613c0.257-0.279 0.414-0.654 0.414-1.064 0-0.475-0.21-0.901-0.543-1.19l-0.002-0.002-14.773-12.925c-0.318-0.269-0.732-0.432-1.184-0.432-0.467 0-0.893 0.174-1.217 0.46l0.002-0.002-14.821 13.589c-0.316 0.288-0.513 0.701-0.513 1.16 0 0.424 0.168 0.809 0.442 1.091l-0-0 0.373 0.387c0.613 0.64 1.611 0.72 2.224 0.171l1.107-0.992v14.523c0 0.893 0.72 1.613 1.613 1.613h5.773c0.891 0 1.613-0.72 1.613-1.613v-10.16h7.373v10.16c-0.013 0.891 0.624 1.613 1.515 1.613h6.123c0.891 0 1.611-0.72 1.611-1.613v-14.32l0.685 0.603c0.376 0.331 1.168 0.064 1.765-0.595l0.421-0.461z"></path>
</symbol>
<symbol id="icon-customer-reviews-symbol" viewBox="0 0 43 32">
<path fill="#e1e1e1" style="fill: var(--color3, #e1e1e1)" d="M32.014 0c1.928 0 3.75 0.52 5.464 1.561s3.107 2.537 4.178 4.488c1.029 1.951 1.543 4.25 1.543 6.894s-0.643 5.225-1.928 7.74c-0.429 0.91-1.2 2.081-2.315 3.512-1.157 1.43-2.228 2.666-3.214 3.707l-4.050 4.098-2.893-4.813c2.063-1.302 3.824-2.855 5.306-4.646l0.030-0.037c1.542-1.821 2.314-3.49 2.314-5.008 0-0.781-0.171-1.41-0.514-1.886-1.5 1.084-3.172 1.626-5.014 1.626-1.328 0-2.593-0.412-3.793-1.236-1.237-0.782-2.237-1.834-2.935-3.078l-0.022-0.043c-0.771-1.258-1.157-2.558-1.157-3.902 0-1.518 0.45-2.97 1.35-4.358 0.866-1.389 2.011-2.526 3.364-3.356l0.044-0.025c1.37-0.824 2.784-1.236 4.242-1.236zM8.936 0c1.928 0 3.75 0.52 5.464 1.561s3.107 2.536 4.178 4.488c1.029 1.951 1.543 4.25 1.543 6.894 0 1.864-0.236 3.534-0.707 5.008-0.472 1.518-1.286 3.1-2.443 4.748-1.114 1.561-2.164 2.862-3.15 3.902-0.986 1.084-2.7 2.883-5.143 5.398l-2.893-4.813c2.063-1.302 3.824-2.855 5.306-4.646l0.030-0.037c1.542-1.821 2.314-3.49 2.314-5.008 0-0.781-0.172-1.41-0.514-1.886-1.5 1.084-3.172 1.626-5.014 1.626-1.328 0-2.593-0.412-3.793-1.236-1.237-0.782-2.237-1.834-2.935-3.078l-0.022-0.043c-0.771-1.258-1.157-2.558-1.157-3.902 0-1.518 0.429-2.97 1.286-4.358 0.866-1.389 2.011-2.526 3.364-3.356l0.045-0.025c1.37-0.824 2.784-1.236 4.242-1.236z"></path>
</symbol>
<symbol id="icon-facebook" viewBox="0 0 33 32">
<path  d="M16.471 32c8.837 0 16-7.163 16-16s-7.163-16-16-16c-8.837 0-16 7.163-16 16s7.163 16 16 16z"></path>
<path fill="#fff" style="fill: var(--color2, #fff)" d="M20.916 15.981h-2.61v9.618h-3.955v-9.618h-1.881v-3.38h1.881v-2.188c0-1.564 0.739-4.014 3.99-4.014l2.929 0.012v3.281h-2.125c-0.349 0-0.839 0.175-0.839 0.921v1.989h2.955l-0.346 3.377z"></path>
</symbol>
<symbol id="icon-github" viewBox="0 0 32 32">
<path  d="M32 16c0 8.837-7.163 16-16 16s-16-7.163-16-16c0-8.837 7.163-16 16-16s16 7.163 16 16z"></path>
<path fill="#fff" style="fill: var(--color2, #fff)" d="M16 6.588c-5.169 0-9.412 4.242-9.412 9.412 0 4.411 3.095 8.419 7.206 9.412v-3.114c-0.407 0.089-0.782 0.092-1.197-0.030-0.556-0.164-1.008-0.535-1.344-1.1-0.214-0.361-0.593-0.752-0.988-0.723l-0.097-1.099c0.855-0.073 1.595 0.521 2.034 1.258 0.195 0.328 0.419 0.52 0.708 0.605 0.278 0.082 0.577 0.043 0.926-0.081 0.088-0.698 0.407-0.959 0.649-1.326v-0.001c-2.451-0.366-3.428-1.666-3.816-2.693-0.514-1.363-0.238-3.066 0.671-4.142 0.018-0.021 0.050-0.076 0.037-0.114-0.417-1.258 0.091-2.3 0.11-2.41 0.481 0.142 0.559-0.143 2.088 0.786l0.264 0.159c0.111 0.066 0.076 0.028 0.186 0.020 0.639-0.174 1.312-0.269 1.975-0.278 0.668 0.009 1.337 0.104 2.002 0.285l0.086 0.009c-0.008-0.001 0.023-0.005 0.075-0.036 1.911-1.157 1.842-0.779 2.354-0.946 0.018 0.111 0.519 1.169 0.107 2.411-0.056 0.171 1.657 1.739 0.708 4.256-0.388 1.027-1.365 2.328-3.816 2.693v0.001c0.314 0.479 0.692 0.734 0.69 1.722v3.887c4.111-0.993 7.206-5 7.206-9.412 0-5.169-4.242-9.412-9.412-9.412v0z"></path>
</symbol>
<symbol id="icon-telegram" viewBox="0 0 33 32">
<path  d="M32.235 16c0 8.837-7.163 16-16 16s-16-7.163-16-16c0-8.837 7.163-16 16-16s16 7.163 16 16z"></path>
<path fill="#fff" style="fill: var(--color2, #fff)" d="M13.102 18.375l-0.318 4.169c0.454 0 0.651-0.182 0.887-0.401l2.13-1.9 4.414 3.017c0.81 0.421 1.38 0.199 1.598-0.695l2.898-12.673c0.257-1.117-0.433-1.554-1.222-1.28l-17.032 6.086c-1.162 0.421-1.145 1.026-0.198 1.3l4.355 1.264 10.115-5.907c0.476-0.294 0.909-0.131 0.553 0.163l-8.182 6.857z"></path>
</symbol>
<symbol id="icon-close" viewBox="0 0 32 32">
<path d="M31.444 3.166l-3.166-3.166-12.564 12.547-12.547-12.547-3.166 3.166 12.547 12.547-12.547 12.581 3.166 3.166 12.547-12.564 12.564 12.564 3.166-3.166-12.564-12.564 12.564-12.547z"></path>
</symbol>
<symbol id="icon-Burger" viewBox="0 0 46 32">
<path fill="none" stroke="#d41443" style="stroke: var(--color1, #d41443)" stroke-linejoin="miter" stroke-linecap="butt" stroke-miterlimit="4" stroke-width="2.2857" d="M0 2.286h45.714M0 16h45.714M0 29.714h45.714"></path>
</symbol>
</defs>
</svg>
